<svg width="16" height="19" viewBox="0 0 16 19" fill="none" xmlns="http://www.w3.org/2000/svg">
<path fill-rule="evenodd" clip-rule="evenodd" d="M11.7167 7.43437C11.3413 7.43437 11.0367 7.12973 11.0367 6.75438V4.80779C11.0367 2.90743 9.49085 1.36159 7.5905 1.36159H7.57599C6.65755 1.36159 5.79713 1.71518 5.14706 2.35981C4.49246 3.00717 4.1307 3.87121 4.12707 4.79237V6.75438C4.12707 7.12973 3.82244 7.43437 3.44708 7.43437C3.07173 7.43437 2.76709 7.12973 2.76709 6.75438V4.80779C2.77253 3.5022 3.27754 2.29726 4.18873 1.39423C5.10082 0.49029 6.30486 -0.0328511 7.59322 0.00160185C10.2407 0.00160185 12.3967 2.15763 12.3967 4.80779V6.75438C12.3967 7.12973 12.092 7.43437 11.7167 7.43437Z" fill="#147F37"/>
<path fill-rule="evenodd" clip-rule="evenodd" d="M4.11811 7.36997C2.59674 7.36997 1.36006 8.60665 1.36006 10.128V14.0167C1.36006 15.538 2.59674 16.7747 4.11811 16.7747H11.0459C12.5663 16.7747 13.8039 15.538 13.8039 14.0167V10.128C13.8039 8.60665 12.5663 7.36997 11.0459 7.36997H4.11811ZM11.0458 18.1345H4.11803C1.84686 18.1345 0 16.2876 0 14.0164V10.1278C0 7.85662 1.84686 6.00977 4.11803 6.00977H11.0458C13.317 6.00977 15.1638 7.85662 15.1638 10.1278V14.0164C15.1638 16.2876 13.317 18.1345 11.0458 18.1345Z" fill="#147F37"/>
<path fill-rule="evenodd" clip-rule="evenodd" d="M7.58136 13.7589C7.206 13.7589 6.90137 13.4543 6.90137 13.0789V11.0652C6.90137 10.6899 7.206 10.3853 7.58136 10.3853C7.95671 10.3853 8.26135 10.6899 8.26135 11.0652V13.0789C8.26135 13.4543 7.95671 13.7589 7.58136 13.7589Z" fill="#147F37"/>
</svg>
