<svg width="17" height="15" viewBox="0 0 17 15" fill="none" xmlns="http://www.w3.org/2000/svg">
<path fill-rule="evenodd" clip-rule="evenodd" d="M8.08279 8.59862C7.58104 8.59862 7.08079 8.43287 6.66229 8.10137L3.29854 5.38937C3.05629 5.19437 3.01879 4.83962 3.21304 4.59812C3.40879 4.35737 3.76279 4.31912 4.00429 4.51337L7.36504 7.22237C7.78729 7.55687 8.38204 7.55687 8.80729 7.21937L12.1343 4.51487C12.3758 4.31762 12.7298 4.35512 12.9263 4.59662C13.122 4.83737 13.0853 5.19137 12.8445 5.38787L9.51154 8.09687C9.09004 8.43137 8.58604 8.59862 8.08279 8.59862Z" fill="#147F37"/>
<mask id="mask0_1_5986" style="mask-type:luminance" maskUnits="userSpaceOnUse" x="0" y="0" width="17" height="15">
<path fill-rule="evenodd" clip-rule="evenodd" d="M0 0H16.1249V14.625H0V0Z" fill="white"/>
</mask>
<g mask="url(#mask0_1_5986)">
<path fill-rule="evenodd" clip-rule="evenodd" d="M4.37925 13.5H11.7443C11.7458 13.4985 11.7517 13.5 11.7563 13.5C12.612 13.5 13.371 13.194 13.953 12.6128C14.6287 11.94 15 10.9732 15 9.891V4.74C15 2.64525 13.6305 1.125 11.7443 1.125H4.38075C2.4945 1.125 1.125 2.64525 1.125 4.74V9.891C1.125 10.9732 1.497 11.94 2.172 12.6128C2.754 13.194 3.51375 13.5 4.36875 13.5H4.37925ZM4.3665 14.625C3.20925 14.625 2.17575 14.205 1.37775 13.41C0.489 12.5235 0 11.274 0 9.891V4.74C0 2.03775 1.88325 0 4.38075 0H11.7443C14.2418 0 16.125 2.03775 16.125 4.74V9.891C16.125 11.274 15.636 12.5235 14.7472 13.41C13.95 14.2042 12.9158 14.625 11.7563 14.625H11.7443H4.38075H4.3665Z" fill="#147F37"/>
</g>
</svg>
